<svg width="55" height="54" viewBox="0 0 55 54" fill="none" xmlns="http://www.w3.org/2000/svg">
<path d="M0.00799561 0V53.95H53.957V29.404V0H0.00799561Z" fill="#889099"/>
<mask id="mask0_60_474" style="mask-type:alpha" maskUnits="userSpaceOnUse" x="0" y="16" width="54" height="23">
<path fill-rule="evenodd" clip-rule="evenodd" d="M0 16.733V38.83H53.965V16.733H0Z" fill="white"/>
</mask>
<g mask="url(#mask0_60_474)">
<path fill-rule="evenodd" clip-rule="evenodd" d="M51.404 26.16H47.3534L46.4725 24.7612V26.16H40.6416L40.1241 24.8068H39.1614L38.6528 26.16H35.1745C34.8572 26.16 34.5232 26.134 34.1877 26.0732C33.9822 26.0359 33.7758 25.9859 33.5727 25.9197C33.4084 25.8667 33.2461 25.8039 33.0872 25.7303C32.9288 25.6563 32.7728 25.5714 32.6227 25.4743V25.8584V26.16H26.8104L25.7569 24.7887V26.16H4.72295L4.20503 24.8068H3.24228L2.73368 26.16H-9.15527e-05V25.3208V20.765L1.7258 16.7325H5.58565L6.43952 18.659V16.7325H11.1709L11.7344 18.3765L12.2881 16.7325H32.6227V17.1455V17.4697C32.7998 17.3515 32.9866 17.248 33.1818 17.1583C33.3481 17.0822 33.5207 17.0165 33.6983 16.9611C33.9244 16.8905 34.1588 16.8365 34.3996 16.7988C34.6826 16.7546 34.9749 16.7325 35.2741 16.7325H41.5048L42.3493 18.6389V16.7325H46.1184L47.0807 18.2402V16.7325H51.404V26.16ZM53.9647 29.4038V38.2496C53.7523 38.3805 53.5208 38.4924 53.2736 38.5821C52.8342 38.7415 52.3442 38.8303 51.8214 38.8303H33.6576L32.6041 37.4595V38.8303H28.4176V36.4384C27.8168 36.6615 27.1385 36.7964 26.392 36.7964H26.4553V38.8303H20.4522L19.5895 37.6042L18.7538 38.8303H9.16348V29.4038H18.7905L19.6346 30.6118L20.4885 29.4038H53.4924H53.9647Z" fill="#323642"/>
</g>
<path fill-rule="evenodd" clip-rule="evenodd" d="M15.73 30.9383V32.2281H12.1703V33.4631H15.6486V34.7348H12.1703V36.0149H15.73V37.296H10.644V30.9383H15.73ZM21.0249 37.296H22.9322L20.3799 34.0899L22.9141 30.9383H21.0617L19.4991 32.9545L17.9463 30.9383H16.039L18.582 34.1169L16.0478 37.296H17.9007L19.4628 35.2523L21.0249 37.296ZM23.2682 37.296V30.9383H26.7646C28.1183 30.9383 28.9623 31.8015 28.9623 33.0634C28.9623 34.2895 28.1001 35.1973 26.7102 35.1973H24.794V37.296H23.2682ZM32.0326 35.007H31.315V37.296H29.7892V30.9383H33.2405C34.5937 30.9383 35.4382 31.7647 35.4382 32.9545C35.4382 33.9717 34.7938 34.7525 33.7128 34.9526L35.8286 37.296H33.9306L32.0326 35.007ZM41.6233 30.9383V32.2281H38.0631V33.4631H41.5414V34.7348H38.0631V36.0149H41.6233V37.296H36.5373V30.9383H41.6233ZM45.8098 36.0242H42.5498V37.296H45.7642C47.136 37.296 47.9536 36.4602 47.9536 35.2704C47.9536 34.135 47.2179 33.4724 45.9824 33.4724H44.5111C44.1477 33.4724 43.8936 33.236 43.8936 32.8638C43.8936 32.4822 44.1477 32.2281 44.5111 32.2281H47.2718L47.8354 30.9383H44.5562C43.1849 30.9383 42.3673 31.774 42.3673 32.9182C42.3673 34.0899 43.1398 34.7618 44.3478 34.7618H45.8098C46.1727 34.7618 46.4361 34.9977 46.4361 35.3798C46.4361 35.7697 46.1727 36.0242 45.8098 36.0242ZM51.8585 36.0242H48.598V37.296H51.8124C53.1847 37.296 54.0018 36.4602 54.0018 35.2704C54.0018 34.135 53.2661 33.4724 52.0312 33.4724H50.5598C50.1959 33.4724 49.9423 33.236 49.9423 32.8638C49.9423 32.4822 50.1959 32.2281 50.5598 32.2281H53.3201L53.8841 30.9383H50.6049C49.2331 30.9383 48.4161 31.774 48.4161 32.9182C48.4161 34.0899 49.1885 34.7618 50.3965 34.7618H51.8585C52.2215 34.7618 52.4848 34.9977 52.4848 35.3798C52.4848 35.7697 52.2215 36.0242 51.8585 36.0242ZM33.1042 32.237C33.6491 32.237 33.9399 32.5911 33.9399 33.0276C33.9399 33.4631 33.6491 33.8079 33.1042 33.8079H31.315V32.237H33.1042ZM27.4277 33.0722C27.4277 33.4999 27.1555 33.8535 26.6195 33.8535H24.794V32.2919H26.6195C27.1555 32.2919 27.4277 32.6367 27.4277 33.0722Z" fill="#889099"/>
<path fill-rule="evenodd" clip-rule="evenodd" d="M7.47462 24.625H5.75804L5.21315 23.2626H2.18904L1.65297 24.625H0.0271301L2.75207 18.2673H4.759L7.47462 24.625ZM9.27261 18.5675L9.30939 20.2841V24.625H7.82873V18.2673H10.5081L11.7249 22.7721L12.9328 18.2673H15.621V24.625H14.1408V20.2747L14.1771 18.6038L12.4154 24.625H11.0348L9.27261 18.5675ZM21.9606 19.5572V18.2673H16.8746V24.625H21.9606V23.3263H18.4004V22.0639H21.8787V20.7927H18.4004V19.5572H21.9606ZM25.3206 22.3366H24.6031V24.625H23.0773V18.2673H26.5286C27.8818 18.2673 28.7268 19.0942 28.7268 20.2841C28.7268 21.3008 28.0819 22.0821 27.0009 22.2817L29.1172 24.625H27.2192L25.3206 22.3366ZM31.1241 24.625H29.5983V21.7907V18.2673H31.1241V21.827V24.625ZM35.0203 24.625H35.1022L35.7285 23.2719H35.2655C34.2208 23.2719 33.6034 22.6181 33.6034 21.492V21.4013C33.6034 20.3929 34.1571 19.6391 35.2474 19.6391H36.9002V18.2673H35.1203C33.1585 18.2673 32.0869 19.5847 32.0869 21.392V21.5009C32.0869 23.3901 33.186 24.6162 35.0203 24.625ZM43.3932 24.625H41.6772L41.1323 23.2626H38.1082L37.5721 24.625H35.9467L38.6707 18.2673H40.6786L43.3932 24.625ZM45.2373 20.8196L45.2192 20.2929L45.537 20.8196L47.9706 24.625H49.7514V18.2673H48.2619V21.9457L48.2801 22.418L47.9986 21.9457L45.6184 18.2673H43.7483V24.625H45.2373V20.8196ZM39.1528 20.6382L39.6158 19.4483L40.0783 20.6382L40.6423 22.0458H38.5986L39.1528 20.6382ZM26.3923 19.5665C26.9372 19.5665 27.228 19.9206 27.228 20.3567C27.228 20.7927 26.9372 21.1374 26.3923 21.1374H24.6031V19.5665H26.3923ZM3.2332 20.6382L3.69668 19.4483L4.15967 20.6382L4.7227 22.0458H2.67949L3.2332 20.6382Z" fill="#889099"/>
</svg>
