<svg width="66" height="52" viewBox="0 0 66 52" fill="none" xmlns="http://www.w3.org/2000/svg">
<path fill-rule="evenodd" clip-rule="evenodd" d="M62.8099 48.4681V43.6238H61.686V46.4337C61.2833 45.9155 60.6558 45.6227 60 45.6469C58.4481 45.6469 57.1901 46.905 57.1901 48.4568C57.1901 50.0087 58.4481 51.2668 60 51.2668C60.6558 51.2909 61.2833 50.9982 61.686 50.48V51.1319H62.8099V48.4681ZM27.967 45.7818H29.8889L29.9002 46.8496H27.9894V49.2998C27.9894 49.8393 28.203 50.199 28.765 50.199C29.1298 50.1869 29.4856 50.0825 29.799 49.8955L30.1362 50.8958C29.698 51.1693 29.1916 51.3134 28.6751 51.3117C27.2926 51.3117 26.8093 50.5699 26.8093 49.3223V46.8496H25.719V45.7818H26.7868V44.152H27.967V45.7818ZM12.4281 47.7825V51.1544L11.248 51.1768V48.1871C11.248 47.2767 10.8658 46.7709 10.0678 46.7709C9.69348 46.7527 9.3304 46.9015 9.07649 47.1771C8.82258 47.4527 8.704 47.8268 8.75275 48.1983V51.1768H7.57258V48.1871C7.57258 47.2767 7.17919 46.7709 6.40365 46.7709C6.02876 46.7507 5.66441 46.8988 5.41003 47.175C5.15564 47.4511 5.03779 47.8263 5.08861 48.1983V51.1544H3.90845V45.7818H5.07737V46.4449C5.42331 45.9188 6.02202 45.6151 6.65093 45.6469C7.37323 45.6159 8.05465 45.9825 8.42679 46.6023C8.83498 45.9634 9.55854 45.5973 10.3151 45.6469C10.8891 45.6132 11.4499 45.8282 11.8544 46.237C12.2589 46.6457 12.4679 47.2088 12.4281 47.7825ZM39.8585 45.6469C39.278 45.6298 38.7346 45.9317 38.4423 46.4337V45.7818H37.2846V51.1544H38.4536V48.1421C38.4536 47.2542 38.8357 46.7596 39.5775 46.7596C39.8276 46.7562 40.0758 46.8021 40.3081 46.8945L40.6678 45.7706C40.4008 45.6751 40.1196 45.6256 39.8361 45.6244L39.8585 45.6469ZM22.5944 45.6469C23.3637 45.6204 24.1245 45.8155 24.7861 46.2089L24.2691 47.153C23.7558 46.8578 23.1753 46.6991 22.5832 46.6922C21.9425 46.6922 21.5603 46.962 21.5603 47.3216C21.5603 47.6813 21.965 47.7825 22.4708 47.8499L23.0327 47.9286C24.2017 48.0972 24.9098 48.513 24.9098 49.5358C24.9098 50.5587 24.0106 51.2892 22.4595 51.2892C21.6294 51.3121 20.8138 51.0678 20.1329 50.5924L20.6949 49.682C21.2106 50.0646 21.8401 50.2625 22.482 50.2439C23.28 50.2439 23.7071 50.0079 23.7071 49.592C23.7071 49.2886 23.4037 49.12 22.763 49.0301L22.201 48.9514C20.9984 48.7828 20.3465 48.2433 20.3465 47.3666C20.3465 46.2988 21.2344 45.6469 22.5944 45.6469ZM56.0942 45.6469C55.5137 45.6298 54.9703 45.9317 54.678 46.4337V45.7818H53.5203V51.1544H54.6893V48.1421C54.6893 47.2542 55.0714 46.7596 55.8132 46.7596C56.0633 46.7562 56.3115 46.8021 56.5438 46.8945L56.9035 45.7706C56.6365 45.6751 56.3553 45.6256 56.0718 45.6244L56.0942 45.6469ZM41.8454 50.495C41.2999 49.9602 41.005 49.2203 41.0331 48.4568V48.4344C41.005 47.6709 41.2999 46.931 41.8454 46.3962C42.3909 45.8614 43.1365 45.5812 43.8992 45.6244C44.601 45.5887 45.2908 45.8173 45.8324 46.2651L45.2704 47.2092C44.8663 46.9011 44.3736 46.7316 43.8655 46.7259C42.9695 46.7984 42.2793 47.5467 42.2793 48.4456C42.2793 49.3445 42.9695 50.0928 43.8655 50.1653C44.3736 50.1596 44.8663 49.9901 45.2704 49.682L45.8324 50.6261C45.2908 51.0739 44.601 51.3025 43.8992 51.2668C43.1365 51.31 42.3909 51.0298 41.8454 50.495ZM51.9805 48.4568V45.7818H50.8116V46.4337C50.4089 45.9155 49.7815 45.6227 49.1256 45.6469C47.5738 45.6469 46.3157 46.905 46.3157 48.4568C46.3157 50.0087 47.5738 51.2668 49.1256 51.2668C49.7815 51.2909 50.4089 50.9982 50.8116 50.48V51.1319H51.9805V48.4568ZM49.313 46.9294C48.4302 46.8963 47.6827 47.5749 47.6308 48.4568C47.6009 48.9057 47.76 49.3467 48.0694 49.6732C48.3789 49.9998 48.8107 50.1822 49.2605 50.1765C50.144 50.1719 50.8617 49.462 50.876 48.5786C50.8903 47.6953 50.1958 46.9625 49.313 46.9294ZM33.525 45.6469C31.9731 45.6686 30.7327 46.9443 30.7544 48.4962C30.7761 50.0481 32.0518 51.2885 33.6037 51.2668C34.4122 51.3083 35.2073 51.0479 35.8347 50.5362L35.2727 49.6707C34.829 50.0266 34.2792 50.2244 33.7104 50.2327C32.907 50.3018 32.1945 49.7189 32.1032 48.9177H36.0932V48.4681C36.0932 46.7821 35.048 45.6582 33.5418 45.6582L33.525 45.6469ZM34.4751 47.0624C34.22 46.8178 33.8782 46.6847 33.525 46.6922H33.5025C32.7514 46.6666 32.1174 47.2457 32.0751 47.996H34.885C34.8776 47.6427 34.7302 47.3069 34.4751 47.0624ZM64.7738 50.3732C64.8422 50.374 64.9099 50.3874 64.9736 50.4125C65.0381 50.4389 65.0972 50.477 65.1478 50.5249C65.1972 50.5734 65.2372 50.6305 65.2658 50.6935C65.3233 50.8262 65.3233 50.9767 65.2658 51.1094C65.2372 51.1724 65.1972 51.2295 65.1478 51.278C65.0972 51.3259 65.0381 51.3641 64.9736 51.3904C64.9063 51.4201 64.8336 51.4354 64.76 51.4353C64.5426 51.4337 64.3456 51.3068 64.2542 51.1094C64.1974 50.9766 64.1974 50.8263 64.2542 50.6935C64.2829 50.6305 64.3229 50.5734 64.3722 50.5249C64.4228 50.477 64.4819 50.4389 64.5465 50.4125C64.6197 50.3834 64.6982 50.37 64.7769 50.3732H64.7738ZM64.7649 51.323C64.8193 51.3226 64.8731 51.3112 64.923 51.2892C64.9713 51.2676 65.0152 51.2371 65.0522 51.1993C65.198 51.0403 65.198 50.7963 65.0522 50.6373C65.0153 50.5994 64.9714 50.5689 64.923 50.5474C64.8716 50.525 64.8161 50.5135 64.76 50.5137C64.704 50.514 64.6486 50.5255 64.597 50.5474C64.5466 50.5681 64.5007 50.5987 64.4622 50.6373C64.3164 50.7963 64.3164 51.0403 64.4622 51.1993C64.5008 51.2378 64.5466 51.2684 64.597 51.2892C64.6537 51.3137 64.7152 51.3252 64.7769 51.323H64.7649ZM64.9399 50.6992C64.8979 50.6676 64.8462 50.6516 64.7937 50.6542L64.5577 50.6598V51.1544H64.6645V50.9689H64.7151L64.8668 51.1544H64.9961L64.8331 50.9689C64.877 50.9657 64.9185 50.9479 64.9511 50.9183C64.9778 50.8916 64.9921 50.8549 64.9904 50.8172C64.9936 50.772 64.9748 50.728 64.9399 50.6992ZM64.6701 50.7497V50.8846H64.7937C64.8157 50.8912 64.8392 50.8912 64.8612 50.8846C64.8692 50.8687 64.8692 50.8499 64.8612 50.834C64.8692 50.8181 64.8692 50.7994 64.8612 50.7834C64.8392 50.7769 64.8157 50.7769 64.7937 50.7834L64.6701 50.7497ZM60.1705 46.9406C59.2877 46.9075 58.5403 47.5861 58.4883 48.4681C58.4585 48.917 58.6175 49.3579 58.9269 49.6845C59.2364 50.011 59.6682 50.1934 60.118 50.1877C61.0015 50.1832 61.7192 49.4732 61.7335 48.5899C61.7478 47.7065 61.0534 46.9738 60.1705 46.9406ZM19.0202 48.4681V45.7818H17.8513V46.4337C17.4485 45.9155 16.8211 45.6227 16.1653 45.6469C14.6134 45.6469 13.3554 46.905 13.3554 48.4568C13.3554 50.0087 14.6134 51.2668 16.1653 51.2668C16.8211 51.2909 17.4485 50.9982 17.8513 50.48V51.1319H19.0202V48.4681ZM16.3527 46.9406C15.4698 46.9075 14.7224 47.5861 14.6704 48.4681H14.6592C14.6292 48.919 14.7897 49.3617 15.1017 49.6886C15.4136 50.0156 15.8484 50.1966 16.3002 50.1877C17.1836 50.1832 17.9014 49.4732 17.9157 48.5899C17.9299 47.7065 17.2355 46.9738 16.3527 46.9406Z" fill="#889099"/>
<path opacity="0.4" d="M25.5223 20.7511C25.5157 14.542 28.3653 8.67492 33.2496 4.84132C24.9546 -1.67766 13.0427 -0.728113 5.88515 7.02264C-1.27235 14.7734 -1.27235 26.7231 5.88515 34.4739C13.0427 42.2246 24.9546 43.1742 33.2496 36.6552C28.3669 32.8228 25.5174 26.9582 25.5223 20.7511Z" fill="#889099"/>
<path d="M65.9851 20.7511C65.9849 28.4971 61.562 35.5631 54.5947 38.948C47.6274 42.333 39.339 41.4427 33.2496 36.6552C38.1302 32.8196 40.9798 26.9557 40.9798 20.7483C40.9798 14.5408 38.1302 8.67694 33.2496 4.84131C39.339 0.0538344 47.6274 -0.836484 54.5947 2.54848C61.562 5.93344 65.9849 12.9994 65.9851 20.7454V20.7511Z" fill="#889099"/>
<path opacity="0.65" d="M33.4297 37.1791C28.5644 33.4308 25.4297 27.5464 25.4297 20.9297C25.4297 14.3131 28.5644 8.42864 33.4297 4.68039C38.2951 8.42864 41.4297 14.3131 41.4297 20.9297C41.4297 27.5464 38.2951 33.4308 33.4297 37.1791Z" fill="#889099"/>
<path fill-rule="evenodd" clip-rule="evenodd" d="M64.0519 32.6314V33.2833H63.9339V32.6314H63.6473V32.4965H64.316V32.6314H64.0519ZM65.3501 32.4965V33.2833L65.2321 33.2889V32.6932L65.0129 33.2046H64.8612L64.642 32.6932V33.2833H64.4959V32.4965H64.6757L64.9117 33.0585L65.1478 32.4965H65.3501Z" fill="#889099"/>
</svg>
