<svg width="28" height="28" viewBox="0 0 28 28" fill="none" xmlns="http://www.w3.org/2000/svg">
<path fill-rule="evenodd" clip-rule="evenodd" d="M26.2713 0H2.24698C1.09656 0 0 0.781151 0 1.89681V26.0458C0 27.1614 1.09687 28 2.24698 28H26.2713C27.4217 28 28 27.1611 28 26.0458V1.89681C28 0.781464 27.4217 0 26.2713 0Z" fill="#323642"/>
<path fill-rule="evenodd" clip-rule="evenodd" d="M8.27273 23.5454H4.45455V10.8182H8.27273V23.5454ZM6.58091 8.90908H6.55241C5.12416 8.90908 4.1983 7.98146 4.1983 6.75868C4.1983 5.51115 5.15141 4.58551 6.60784 4.58551C8.06459 4.58551 8.9607 5.49852 8.98888 6.74635C8.98888 7.96945 8.06491 8.90908 6.58091 8.90908ZM24.1818 23.5454H19.7273V16.6641C19.7273 14.9527 19.1493 13.7854 17.6095 13.7854C16.4315 13.7854 15.727 14.5731 15.4201 15.3333C15.3061 15.6052 15.2727 15.9848 15.2727 16.3644V23.5454H11.0655C11.0655 23.5454 11.1212 12.0909 11.0655 10.8182H15.2727V12.5504C15.9091 11.6834 16.9323 10.4466 19.1937 10.4466C21.996 10.4466 24.1818 12.2644 24.1818 16.1755V23.5454ZM15.2954 12.5908C15.3029 12.5789 15.313 12.5645 15.323 12.5507V12.5908H15.2954Z" fill="white"/>
</svg>
