<svg width="30" height="30" viewBox="0 0 30 30" fill="none" xmlns="http://www.w3.org/2000/svg">
<path d="M14.6573 0.010422C23.2105 -0.182231 30.2195 6.8036 29.9931 15.4339C29.7866 23.3014 23.3311 30.0851 14.8213 29.9991C6.71312 29.9176 0.0442388 23.3474 0.00346375 14.9991C0.0529143 6.66301 6.68363 0.190925 14.6573 0.010422Z" fill="#323642"/>
<path fill-rule="evenodd" clip-rule="evenodd" d="M25.5703 16.8343C26.3649 16.2451 26.8473 15.4814 26.751 14.4522C26.6564 13.4429 26.1463 12.6923 25.2224 12.2818C24.2221 11.841 23.2652 11.9651 22.4072 12.6663C22.3091 12.7461 22.2493 12.7496 22.1486 12.6836C20.5575 11.6344 18.8042 11.0469 16.9138 10.8552C16.7944 10.8429 16.6749 10.8304 16.5498 10.8173L16.5497 10.8173L16.2475 10.7857C16.4993 10.0027 16.7468 9.23206 16.9936 8.46341L16.9938 8.4629L17.463 7.0021C17.496 7.00741 17.5268 7.01192 17.5561 7.0162C17.613 7.02452 17.6642 7.032 17.7146 7.04289C17.9851 7.10105 18.2555 7.15975 18.526 7.21847L18.5261 7.21847L18.5261 7.21848L18.5261 7.21848L18.5261 7.21849C19.2202 7.36915 19.9147 7.51989 20.6113 7.66163C20.81 7.70242 20.9089 7.77185 20.9653 7.98185C21.2308 8.97462 22.2189 9.60725 23.2166 9.44671C24.5882 9.22542 25.3326 7.74755 24.668 6.56386C24.1362 5.61795 22.4844 5.05215 21.4199 6.2905C21.3158 6.412 21.2273 6.44063 21.072 6.40679C20.1586 6.20635 19.2443 6.0119 18.3297 5.8174C17.9891 5.74496 17.6484 5.6725 17.3077 5.59973C16.7863 5.48778 16.5425 5.63097 16.382 6.14124C16.2312 6.6199 16.0801 7.09845 15.9291 7.57701L15.9291 7.57713L15.929 7.57725C15.6266 8.53541 15.3243 9.49357 15.0234 10.4525C14.9844 10.5775 14.9514 10.6677 14.784 10.6668C13.9372 10.6608 13.1027 10.7805 12.275 10.9558C10.7906 11.27 9.41034 11.8306 8.15499 12.6871C8.04048 12.7652 7.9702 12.734 7.86523 12.6854C7.7487 12.6314 7.63293 12.5739 7.51705 12.5164L7.51704 12.5164C7.20588 12.3618 6.89387 12.2068 6.5639 12.1195C4.99883 11.7047 3.14053 12.9769 3.46066 15.0675C3.58646 15.8893 4.07489 16.4837 4.74811 16.935C4.85916 17.0088 4.88345 17.0756 4.8635 17.1971C4.67524 18.3278 4.79236 19.4247 5.24869 20.48C5.89762 21.9804 7.01416 23.0652 8.37015 23.9208C9.91786 24.898 11.6348 25.3926 13.4349 25.6191C15.0095 25.8161 16.5755 25.7415 18.1223 25.3926C20.3485 24.8902 22.3308 23.9347 23.8568 22.1843C25.0671 20.7959 25.6032 19.1817 25.3542 17.3403C25.3204 17.0947 25.3794 16.9758 25.5703 16.8343ZM20.2756 16.9107C20.2791 17.7421 19.533 18.4858 18.694 18.4866C17.8213 18.4875 17.1073 17.7533 17.1064 16.8526C17.1055 16.029 17.8412 15.307 18.6854 15.3044C19.5546 15.3018 20.2721 16.0255 20.2756 16.9107ZM19.0688 21.5014C19.251 21.2905 19.2042 21.0397 19.0367 20.874C18.8042 20.6431 18.504 20.5789 18.2707 20.7125C18.2184 20.7425 18.1686 20.7766 18.1188 20.8106L18.1188 20.8106L18.1188 20.8106C18.0793 20.8376 18.0398 20.8646 17.9991 20.8896C16.3915 21.8667 14.712 22.0186 12.9717 21.2948C12.7045 21.1836 12.4534 21.032 12.203 20.8808L12.203 20.8808C12.1192 20.8302 12.0356 20.7797 11.9514 20.7308C11.7016 20.585 11.3875 20.6362 11.1481 20.8783C10.9902 21.0371 10.9702 21.3105 11.1281 21.5344C11.2175 21.6602 11.338 21.7739 11.4647 21.8624C12.5526 22.6261 13.7759 22.9445 15.1909 22.961C15.2353 22.9578 15.2879 22.9543 15.3463 22.9504C15.4899 22.9409 15.6687 22.9291 15.8476 22.9124C16.7273 22.8317 17.5662 22.6 18.3253 22.1436C18.6021 21.9752 18.8554 21.7461 19.0688 21.5014ZM13.0922 16.9072C13.0957 17.7108 12.3401 18.4849 11.5515 18.4866C10.657 18.4884 9.91353 17.769 9.91092 16.8994C9.90919 16.0394 10.6371 15.3053 11.4916 15.3053C12.3574 15.3044 13.0888 16.0359 13.0922 16.9072Z" fill="white"/>
</svg>
